<?xml version="1.0" encoding="UTF-8"?>
<svg id="Layer_1" data-name="Layer 1" xmlns="http://www.w3.org/2000/svg" viewBox="0 0 1200 627">
  <defs>
    <style>
      .cls-1 {
        fill: #fff;
      }

      .cls-2 {
        fill: #1de9b6;
      }

      .cls-3 {
        fill: #ff5252;
      }
    </style>
  </defs>
  <rect class="cls-3" x="0" y="-6.5701893" width="1200" height="633.5701893"/>
  <g>
    <g>
      <path class="cls-1" d="M392.543947,335.4528576h-4.8759766c-3.0605469,0-5.6416016-1.2905273-7.7431641-3.8720703-2.1044922-2.5810547-3.1552734-5.7827148-3.1552734-9.6074219v-35.4199219h12.1894531c2.0068359,0,3.6318359-.5732422,4.875-1.7207031,1.2412109-1.1469727,1.8642578-2.5810547,1.8642578-4.3017578,0-1.9111328-.6230469-3.4418945-1.8642578-4.5888672-1.2431641-1.1474609-2.8681641-1.7207031-4.875-1.7207031h-12.1894531v-20.6494141c0-2.1020508-.6699219-3.8227539-2.0078125-5.1625977-1.3398438-1.3374023-3.0605469-2.0073242-5.1621094-2.0073242-2.1035156,0-3.8242188.6699219-5.1621094,2.0073242-1.3398438,1.3398438-2.0078125,3.0605469-2.0078125,5.1625977v20.6494141h-6.5966797c-2.0068359,0-3.6337891.5732422-4.875,1.7207031-1.2441406,1.1469727-1.8642578,2.6777344-1.8642578,4.5888672,0,1.7207031.6201172,3.1547852,1.8642578,4.3017578,1.2412109,1.1474609,2.8681641,1.7207031,4.875,1.7207031h6.5966797v35.4199219c0,5.2587891,1.0976562,9.9907227,3.2978516,14.1962891,2.1982422,4.2080078,5.2099609,7.5288086,9.0341797,9.9663086,3.8232422,2.4379883,8.125,3.6567383,12.90625,3.6567383h2.5810547c2.4853516,0,4.5175781-.6674805,6.0947266-2.0078125,1.5771484-1.3374023,2.3662109-3.0581055,2.3662109-5.1621094,0-2.1015625-.5986328-3.8227539-1.7929688-5.1625977-1.1962891-1.3374023-2.6523438-2.0073242-4.3730469-2.0073242Z"/>
      <path class="cls-1" d="M464.8144548,275.7267834c-5.3554688-3.2978516-11.7587891-4.9472656-19.2158203-4.9472656-7.5527344,0-14.2460938,1.6987305-20.0761719,5.0908203-5.8320312,3.3945312-10.3964844,8.0795898-13.6943359,14.0532227-3.2978516,5.9755859-4.9472656,12.8833008-4.9472656,20.7211914,0,7.7436523,1.7431641,14.6044922,5.234375,20.5776367,3.4882812,5.9755859,8.3173828,10.6611328,14.4833984,14.0532227,6.1660156,3.3945312,13.2148438,5.0908203,21.1513672,5.0908203,4.3955078,0,9.0097656-.8110352,13.8378906-2.4379883,4.8261719-1.6245117,8.8662109-3.7285156,12.1171875-6.3095703,1.6240234-1.2412109,2.3886719-2.7246094,2.2939453-4.4453125-.0957031-1.7207031-.9560547-3.2983398-2.5810547-4.7319336-1.2431641-1.0512695-2.7021484-1.5532227-4.3730469-1.5058594-1.6738281.0493164-3.2265625.5981445-4.6611328,1.6489258-1.9130859,1.434082-4.4228516,2.7021484-7.5283203,3.800293-3.1074219,1.1000977-6.1435547,1.6489258-9.1054688,1.6489258-5.4492188,0-10.2783203-1.1943359-14.4833984-3.5849609-4.2080078-2.3886719-7.5058594-5.6396484-9.8945312-9.7509766-1.6005859-2.7514648-2.6523438-5.7671509-3.1806641-9.0341797h54.5175781c1.9111328,0,3.4882812-.5961914,4.7324219-1.7924805,1.2412109-1.1943359,1.8642578-2.7001953,1.8642578-4.5170898,0-7.5507812-1.4121094-14.2192383-4.2304688-20.0043945-2.8212891-5.7827148-6.9082031-10.324707-12.2607422-13.6230469ZM431.6171892,286.6969982c3.8720703-2.3886719,8.5322266-3.5849609,13.9814453-3.5849609,4.7792969,0,8.8417969,1.1000977,12.1894531,3.2983398,3.3447266,2.2001953,5.9257812,5.1870117,7.7431641,8.9624023,1.2900391,2.6850586,2.1376953,5.6278076,2.5600586,8.8188477h-47.7392578c.4916992-2.7344971,1.2993164-5.2962646,2.4458008-7.671875,2.0078125-4.1586914,4.9472656-7.4321289,8.8193359-9.8227539Z"/>
      <path class="cls-1" d="M547.412111,274.0060803c-4.6855469-2.1508789-9.8476562-3.2265625-15.4873047-3.2265625-7.5527344,0-14.2460938,1.6987305-20.0761719,5.0908203-5.8320312,3.3945312-10.4208984,8.1020508-13.765625,14.125-3.3476562,6.0224609-5.0195312,12.9057617-5.0195312,20.6494141,0,7.5532227,1.6962891,14.3173828,5.0908203,20.2910156,3.3925781,5.9755859,8.0771484,10.7080078,14.0527344,14.1962891,5.9736328,3.4912109,12.7851562,5.234375,20.4345703,5.234375,10.3251953,0,18.9287109-3.2021484,25.8125-9.6079102,1.3369141-1.3374023,1.9111328-2.8432617,1.7207031-4.5170898-.1933594-1.6713867-1.1005859-3.1772461-2.7246094-4.5170898-1.2441406-1.0507812-2.6777344-1.5058594-4.3027344-1.3623047-1.6259766.1435547-3.2041016.8378906-4.7314453,2.0795898-2.1044922,1.7207031-4.4228516,2.9887695-6.9550781,3.7998047-2.5341797.8134766-5.4736328,1.21875-8.8193359,1.21875-5.0683594,0-9.5136719-1.1694336-13.3359375-3.5131836-3.8251953-2.3413086-6.8115234-5.5209961-8.9628906-9.5361328-2.1503906-4.0151367-3.2255859-8.6040039-3.2255859-13.7661133,0-5.4492188,1.0507812-10.1816406,3.1542969-14.1967773,2.1015625-4.0151367,5.0185547-7.1450195,8.7470703-9.3925781,3.7285156-2.2451172,8.0302734-3.3696289,12.90625-3.3696289,6.9775391,0,12.8095703,2.4868164,17.4951172,7.456543,1.3369141,1.3398438,2.8183594,2.1757812,4.4453125,2.5097656,1.6240234.3359375,3.1054688.0244141,4.4453125-.9321289,1.7207031-1.2416992,2.7714844-2.675293,3.1542969-4.3022461.3808594-1.6245117-.0957031-3.2016602-1.4335938-4.7319336-3.7285156-4.3022461-7.9365234-7.5288086-12.6191406-9.6796875Z"/>
      <path class="cls-1" d="M634.240236,274.8664318c-5.2119141-2.8183594-11.1132812-4.2299805-17.7099609-4.2299805-6.3095703,0-11.9980469,1.3867188-17.0644531,4.1582031-2.7617188,1.5114136-5.1914062,3.3234863-7.3134766,5.4157104v-35.0993042c0-2.1977539-.6699219-3.9658203-2.0068359-5.3056641-1.3398438-1.3374023-3.1083984-2.0073242-5.3056641-2.0073242-2.1044922,0-3.8496094.6699219-5.234375,2.0073242-1.3867188,1.3398438-2.0791016,3.1079102-2.0791016,5.3056641v97.5117188c0,2.1040039.6923828,3.8491211,2.0791016,5.2338867,1.3847656,1.387207,3.1298828,2.0795898,5.234375,2.0795898,2.1972656,0,3.9658203-.6923828,5.3056641-2.0795898,1.3369141-1.3847656,2.0068359-3.1298828,2.0068359-5.2338867v-40.4384766c0-3.5356445.9550781-6.668457,2.8681641-9.3925781,1.9111328-2.7246094,4.4931641-4.8984375,7.7441406-6.5249023,3.2490234-1.6245117,6.8828125-2.4379883,10.8984375-2.4379883,4.3955078,0,8.2919922.8383789,11.6865234,2.5097656,3.3925781,1.6738281,6.0947266,4.2299805,8.1025391,7.671875,2.0068359,3.4414062,3.0107422,7.8867188,3.0107422,13.3359375v35.2763672c0,2.1040039.6923828,3.8491211,2.0791016,5.2338867,1.3847656,1.387207,3.1308594,2.0795898,5.234375,2.0795898,2.1015625,0,3.8476562-.6923828,5.234375-2.0795898,1.3847656-1.3847656,2.0791016-3.1298828,2.0791016-5.2338867v-35.2763672c0-7.934082-1.5058594-14.6264648-4.5166016-20.0756836-3.0117188-5.4492188-7.1230469-9.5830078-12.3330078-12.4042969Z"/>
      <path class="cls-1" d="M730.8193376,276.0138928c-5.5458984-3.4887695-11.8085938-5.234375-18.7851562-5.234375-5.6425781,0-10.8271484,1.171875-15.5595703,3.5136719-4.7314453,2.3432617-8.7714844,5.5205078-12.1171875,9.5356445v-38.7177734c0-2.1977539-.6699219-3.9658203-2.0068359-5.3056641-1.3398438-1.3374023-3.1083984-2.0073242-5.3056641-2.0073242-2.1044922,0-3.8496094.6699219-5.234375,2.0073242-1.3867188,1.3398438-2.0791016,3.1079102-2.0791016,5.3056641v65.3901367c.09375,7.5532227,1.8642578,14.3398438,5.3056641,20.362793s8.1240234,10.7797852,14.0527344,14.2680664c5.9267578,3.4912109,12.6191406,5.234375,20.0761719,5.234375,7.5507812,0,14.2910156-1.7431641,20.21875-5.234375,5.9267578-3.4882812,10.6347656-8.2451172,14.125-14.2680664,3.4892578-6.0229492,5.234375-12.8095703,5.234375-20.362793,0-7.5507812-1.6025391-14.3149414-4.8037109-20.2910156-3.2041016-5.9731445-7.578125-10.7055664-13.1210938-14.1962891ZM731.3212907,324.267799c-2.2470703,4.1113281-5.2832031,7.3378906-9.1064453,9.6791992-3.8242188,2.34375-8.1728516,3.5131836-13.0488281,3.5131836-4.78125,0-9.1054688-1.1694336-12.9775391-3.5131836-3.8720703-2.3413086-6.9082031-5.5678711-9.1064453-9.6791992-2.2001953-4.109375-3.2978516-8.6982422-3.2978516-13.7666016,0-5.1621094,1.0976562-9.7509766,3.2978516-13.7661133,2.1982422-4.0151367,5.234375-7.1923828,9.1064453-9.5361328,3.8720703-2.3413086,8.1962891-3.5131836,12.9775391-3.5131836,4.8759766,0,9.2246094,1.171875,13.0488281,3.5131836,3.8232422,2.34375,6.859375,5.5209961,9.1064453,9.5361328,2.2451172,4.0151367,3.3701172,8.6040039,3.3701172,13.7661133,0,5.0683594-1.125,9.6572266-3.3701172,13.7666016Z"/>
      <path class="cls-1" d="M787.0302751,335.4528576h-3.5849609c-2.1035156,0-3.8251953-1.1474609-5.1621094-3.4418945-1.3398438-2.2939453-2.0078125-5.2089844-2.0078125-8.7470703v-78.2958984c0-2.1020508-.6699219-3.8227539-2.0078125-5.1625977-1.3398438-1.3374023-3.0605469-2.0073242-5.1621094-2.0073242-2.1044922,0-3.8251953.6699219-5.1621094,2.0073242-1.3398438,1.3398438-2.0078125,3.0605469-2.0078125,5.1625977v78.2958984c0,5.1621094.9072266,9.7285156,2.7246094,13.6943359,1.8144531,3.9682617,4.3486328,7.0986328,7.5996094,9.3930664,3.2490234,2.2944336,6.9775391,3.4414062,11.1855469,3.4414062h.2871094c2.8671875,0,5.2089844-.6674805,7.0263672-2.0078125,1.8144531-1.3374023,2.7246094-3.0581055,2.7246094-5.1621094,0-2.1015625-.5986328-3.8227539-1.7929688-5.1625977-1.1962891-1.3374023-2.7490234-2.0073242-4.6601562-2.0073242Z"/>
      <path class="cls-1" d="M860.3056657,275.7267834c-5.3554688-3.2978516-11.7587891-4.9472656-19.2158203-4.9472656-7.5527344,0-14.2460938,1.6987305-20.0761719,5.0908203-5.8320312,3.3945312-10.3964844,8.0795898-13.6943359,14.0532227-3.2978516,5.9755859-4.9472656,12.8833008-4.9472656,20.7211914,0,7.7436523,1.7431641,14.6044922,5.234375,20.5776367,3.4882812,5.9755859,8.3173828,10.6611328,14.4833984,14.0532227,6.1660156,3.3945312,13.2148438,5.0908203,21.1513672,5.0908203,4.3955078,0,9.0097656-.8110352,13.8378906-2.4379883,4.8261719-1.6245117,8.8662109-3.7285156,12.1171875-6.3095703,1.6240234-1.2412109,2.3886719-2.7246094,2.2939453-4.4453125-.0957031-1.7207031-.9560547-3.2983398-2.5810547-4.7319336-1.2431641-1.0512695-2.7021484-1.5532227-4.3730469-1.5058594-1.6738281.0493164-3.2265625.5981445-4.6611328,1.6489258-1.9130859,1.434082-4.4228516,2.7021484-7.5283203,3.800293-3.1074219,1.1000977-6.1435547,1.6489258-9.1054688,1.6489258-5.4492188,0-10.2783203-1.1943359-14.4833984-3.5849609-4.2080078-2.3886719-7.5058594-5.6396484-9.8945312-9.7509766-1.6005859-2.7514648-2.6523438-5.7671509-3.1806641-9.0341797h54.5175781c1.9111328,0,3.4882812-.5961914,4.7324219-1.7924805,1.2412109-1.1943359,1.8642578-2.7001953,1.8642578-4.5170898,0-7.5507812-1.4121094-14.2192383-4.2304688-20.0043945-2.8212891-5.7827148-6.9082031-10.324707-12.2607422-13.6230469ZM827.1084001,286.6969982c3.8720703-2.3886719,8.5322266-3.5849609,13.9814453-3.5849609,4.7792969,0,8.8417969,1.1000977,12.1894531,3.2983398,3.3447266,2.2001953,5.9257812,5.1870117,7.7431641,8.9624023,1.2900391,2.6850586,2.1376953,5.6278076,2.5600586,8.8188477h-47.7392578c.4916992-2.7344971,1.2993164-5.2962646,2.4458008-7.671875,2.0078125-4.1586914,4.9472656-7.4321289,8.8193359-9.8227539Z"/>
      <path class="cls-1" d="M937.380861,309.0671154c-4.1582031-2.1977539-9.8222656-4.0151367-16.9921875-5.4492188-5.1630859-1.0507812-9.0839844-2.1259766-11.7587891-3.2260742-2.6777344-1.0981445-4.4707031-2.3417969-5.3779297-3.7285156-.9091797-1.3847656-1.3623047-2.9399414-1.3623047-4.6606445,0-2.7714844,1.4570312-4.8754883,4.3740234-6.3095703,2.9150391-1.434082,6.4755859-2.1508789,10.6826172-2.1508789,3.6328125,0,6.8339844.4301758,9.6083984,1.2905273,2.7714844.8603516,5.3525391,2.4379883,7.7431641,4.7324219,1.4345703,1.3398438,3.2021484,2.2001953,5.3056641,2.5810547,2.1015625.3833008,3.9189453.0493164,5.4492188-1.0039062,1.5283203-1.1469727,2.3417969-2.5566406,2.4384766-4.2299805.09375-1.671875-.5273438-3.2739258-1.8642578-4.8041992-2.8681641-3.5356445-6.7402344-6.3095703-11.6152344-8.3168945-4.8759766-2.0078125-10.46875-3.0117188-16.7783203-3.0117188-4.875,0-9.5605469.7890625-14.0527344,2.3662109-4.4951172,1.5776367-8.1738281,3.9682617-11.0419922,7.1699219-2.8681641,3.2041016-4.3017578,7.2416992-4.3017578,12.1171875,0,5.5458984,2.1728516,10.230957,6.5244141,14.0532227,4.3486328,3.824707,11.3505859,6.6928711,21.0078125,8.6040039,7.4570312,1.3398438,12.5947266,3.0605469,15.4160156,5.1625977,2.8183594,2.1035156,4.1806641,4.5883789,4.0869141,7.456543-.0966797,2.8681641-1.6025391,5.2119141-4.5175781,7.0263672-2.9169922,1.8173828-7.1474609,2.7246094-12.6904297,2.7246094-4.3984375,0-8.3896484-.7885742-11.9746094-2.3657227-3.5849609-1.5776367-6.1904297-3.2739258-7.8144531-5.0908203-1.3398438-1.434082-2.9404297-2.2700195-4.8046875-2.5097656-1.8632812-.2373047-3.7529297.4082031-5.6640625,1.9360352-1.6269531,1.2436523-2.5585938,2.8457031-2.7958984,4.8041992-.2402344,1.9604492.3583984,3.7055664,1.7919922,5.2338867,3.1552734,3.1547852,7.5761719,5.7607422,13.2646484,7.8154297,5.6865234,2.0566406,11.8779297,3.0830078,18.5703125,3.0830078,6.7871094,0,12.4511719-1.0507812,16.9931641-3.1547852,4.5390625-2.1020508,7.9804688-4.9228516,10.3242188-8.4604492,2.3417969-3.5361328,3.5136719-7.5039062,3.5136719-11.9023438,0-3.8227539-.9101562-7.1923828-2.7246094-10.1098633-1.8173828-2.9150391-4.8037109-5.4711914-8.9628906-7.671875Z"/>
      <path class="cls-1" d="M1018.4736345,316.7389904c-1.8173828-2.9150391-4.8037109-5.4711914-8.9628906-7.671875-4.1582031-2.1977539-9.8222656-4.0151367-16.9921875-5.4492188-5.1630859-1.0507812-9.0839844-2.1259766-11.7587891-3.2260742-2.6777344-1.0981445-4.4707031-2.3417969-5.3779297-3.7285156-.9091797-1.3847656-1.3623047-2.9399414-1.3623047-4.6606445,0-2.7714844,1.4570312-4.8754883,4.3740234-6.3095703,2.9150391-1.434082,6.4755859-2.1508789,10.6826172-2.1508789,3.6328125,0,6.8339844.4301758,9.6083984,1.2905273,2.7714844.8603516,5.3525391,2.4379883,7.7431641,4.7324219,1.4345703,1.3398438,3.2021484,2.2001953,5.3056641,2.5810547,2.1015625.3833008,3.9189453.0493164,5.4492188-1.0039062,1.5283203-1.1469727,2.3417969-2.5566406,2.4384766-4.2299805.09375-1.671875-.5273438-3.2739258-1.8642578-4.8041992-2.8681641-3.5356445-6.7402344-6.3095703-11.6152344-8.3168945-4.8759766-2.0078125-10.46875-3.0117188-16.7783203-3.0117188-4.875,0-9.5605469.7890625-14.0527344,2.3662109-4.4951172,1.5776367-8.1738281,3.9682617-11.0419922,7.1699219-2.8681641,3.2041016-4.3017578,7.2416992-4.3017578,12.1171875,0,5.5458984,2.1728516,10.230957,6.5244141,14.0532227,4.3486328,3.824707,11.3505859,6.6928711,21.0078125,8.6040039,7.4570312,1.3398438,12.5947266,3.0605469,15.4160156,5.1625977,2.8183594,2.1035156,4.1806641,4.5883789,4.0869141,7.456543-.0966797,2.8681641-1.6025391,5.2119141-4.5175781,7.0263672-2.9169922,1.8173828-7.1474609,2.7246094-12.6904297,2.7246094-4.3984375,0-8.3896484-.7885742-11.9746094-2.3657227-3.5849609-1.5776367-6.1904297-3.2739258-7.8144531-5.0908203-1.3398438-1.434082-2.9404297-2.2700195-4.8046875-2.5097656-1.8632812-.2373047-3.7529297.4082031-5.6640625,1.9360352-1.6269531,1.2436523-2.5585938,2.8457031-2.7958984,4.8041992-.2402344,1.9604492.3583984,3.7055664,1.7919922,5.2338867,3.1552734,3.1547852,7.5761719,5.7607422,13.2646484,7.8154297,5.6865234,2.0566406,11.8779297,3.0830078,18.5703125,3.0830078,6.7871094,0,12.4511719-1.0507812,16.9931641-3.1547852,4.5390625-2.1020508,7.9804688-4.9228516,10.3242188-8.4604492,2.3417969-3.5361328,3.5136719-7.5039062,3.5136719-11.9023438,0-3.8227539-.9101562-7.1923828-2.7246094-10.1098633Z"/>
    </g>
    <g>
      <path class="cls-1" d="M252.4521933,229.7840077h-39.2887419c-18.9774861,0-34.3616953,15.3842091-34.3616953,34.361419,0,2.4995749,2.0263463,4.5261974,4.5261974,4.5261974h69.1242397c2.4998511,0,4.5261974-2.0266226,4.5261974-4.5261974v-29.8352216c0-2.5001274-2.0263463-4.5261974-4.5261974-4.5261974Z"/>
      <path class="cls-1" d="M251.899679,281.5011252h-.0002763c-18.7827248,0-34.0091911,15.2267426-34.0091911,34.0094674v51.9308224c0,2.6940599,2.1840892,4.8781491,4.8784253,4.8781491h0c18.7830011,0,34.0091911-15.22619,34.0091911-34.0094674v-51.9302699c0-2.6946124-2.1840892-4.8787016-4.8781491-4.8787016Z"/>
      <path class="cls-1" d="M306.5509144,298.4239686v-34.9647647c0-9.3015788-3.7681478-17.7202398-9.8670773-23.8194455-6.0878792-6.0876029-14.5065401-9.8557507-23.8078427-9.8557507-2.8855061,0-5.2165641,2.331058-5.2165641,5.2052376v71.4461812c6.6876335-6.4390021,15.7737318-10.3994248,25.7767275-10.3994248,4.6168098,0,9.0297418.848662,13.1147565,2.387967Z"/>
      <path class="cls-2" d="M306.5509144,311.1711257c-3.8474336-2.2857518-8.3283248-3.5874756-13.1147565-3.5874756-13.0128176,0-23.8078427,9.6413751-25.6294825,22.1558248-.1812247,1.2221617-.2715608,2.4785793-.2715608,3.7454947,0,14.2802855,11.621034,25.9013195,25.9010433,25.9013195,14.2802855,0,25.9010433-11.621034,25.9010433-25.9013195,0-9.4938538-5.137002-17.8219024-12.7862867-22.3138439Z"/>
    </g>
  </g>
</svg>