<svg xmlns="http://www.w3.org/2000/svg" width="1920" height="1080">
  <path d="M1015 498l-79-114-27 55z" fill="#79b5d9" stroke="#79b5d9" stroke-width="1.51"/>
  <path d="M1015 498l49-120-128 6z" fill="#78b4d9" stroke="#78b4d9" stroke-width="1.51"/>
  <path d="M909 439l-43 127 149-68z" fill="#74b2d8" stroke="#74b2d8" stroke-width="1.51"/>
  <path d="M866 566l144 58 5-126z" fill="#69acd5" stroke="#69acd5" stroke-width="1.51"/>
  <path d="M1015 498l165 1-116-121z" fill="#6fadd5" stroke="#6fadd5" stroke-width="1.51"/>
  <path d="M1010 624l170-125-165-1z" fill="#64a9d3" stroke="#64a9d3" stroke-width="1.51"/>
  <path d="M909 439l-163 29 120 98z" fill="#7cb7da" stroke="#7cb7da" stroke-width="1.51"/>
  <path d="M730 325l16 143 163-29z" fill="#8bbedd" stroke="#8bbedd" stroke-width="1.51"/>
  <path d="M936 384l-206-59 179 114z" fill="#88bddd" stroke="#88bddd" stroke-width="1.51"/>
  <path d="M1064 378L914 204l22 180z" fill="#87bcdc" stroke="#87bcdc" stroke-width="1.51"/>
  <path d="M1058 180l-144 24 150 174z" fill="#8cbddd" stroke="#8cbddd" stroke-width="1.51"/>
  <path d="M1180 499l24-160-140 39z" fill="#72aed5" stroke="#72aed5" stroke-width="1.51"/>
  <path d="M866 566l8 149 136-91z" fill="#66a9d3" stroke="#66a9d3" stroke-width="1.51"/>
  <path d="M746 468l47 143 73-45z" fill="#78b5d9" stroke="#78b5d9" stroke-width="1.51"/>
  <path d="M1204 339l-146-159 6 198z" fill="#81b6d9" stroke="#81b6d9" stroke-width="1.51"/>
  <path d="M914 204L730 325l206 59z" fill="#92c2df" stroke="#92c2df" stroke-width="1.51"/>
  <path d="M1010 624l165 20 5-145z" fill="#5ca3cf" stroke="#5ca3cf" stroke-width="1.51"/>
  <path d="M1180 499l101-41-77-119z" fill="#6aa9d2" stroke="#6aa9d2" stroke-width="1.51"/>
  <path d="M1129 729l46-85-165-20z" fill="#569ecd" stroke="#569ecd" stroke-width="1.51"/>
  <path d="M793 611l81 104-8-149z" fill="#6eadd5" stroke="#6eadd5" stroke-width="1.51"/>
  <path d="M874 715l120 25 16-116z" fill="#5da3d0" stroke="#5da3d0" stroke-width="1.51"/>
  <path d="M1337 585l-56-127-101 41z" fill="#5ca2cf" stroke="#5ca2cf" stroke-width="1.51"/>
  <path d="M1175 644l162-59-157-86z" fill="#569fce" stroke="#569fce" stroke-width="1.51"/>
  <path d="M994 740l135-11-119-105z" fill="#569fcd" stroke="#569fcd" stroke-width="1.51"/>
  <path d="M1204 339l-15-153-131-6z" fill="#86b7da" stroke="#86b7da" stroke-width="1.51"/>
  <path d="M1302 292l-113-106 15 153z" fill="#7db2d7" stroke="#7db2d7" stroke-width="1.51"/>
  <path d="M1281 458l21-166-98 47z" fill="#71acd3" stroke="#71acd3" stroke-width="1.51"/>
  <path d="M730 325l-103 20 119 123z" fill="#96c5df" stroke="#96c5df" stroke-width="1.51"/>
  <path d="M914 204l-199-5 15 126z" fill="#9dc8e2" stroke="#9dc8e2" stroke-width="1.51"/>
  <path d="M737 78l-22 121 199 5z" fill="#a6cbe4" stroke="#a6cbe4" stroke-width="1.51"/>
  <path d="M590 233l37 112 103-20z" fill="#a3cbe2" stroke="#a3cbe2" stroke-width="1.51"/>
  <path d="M746 468L618 572l175 39z" fill="#7fb8da" stroke="#7fb8da" stroke-width="1.51"/>
  <path d="M627 345l-19 113 138 10z" fill="#94c4df" stroke="#94c4df" stroke-width="1.51"/>
  <path d="M793 611l-66 134 147-30z" fill="#6cabd3" stroke="#6cabd3" stroke-width="1.51"/>
  <path d="M1058 180L985 60l-71 144z" fill="#99c3e2" stroke="#99c3e2" stroke-width="1.51"/>
  <path d="M1189 186l-63-92-68 86z" fill="#90bcde" stroke="#90bcde" stroke-width="1.51"/>
  <path d="M1326 69l-200 25 63 92z" fill="#8eb9dd" stroke="#8eb9dd" stroke-width="1.51"/>
  <path d="M1126 94L985 60l73 120z" fill="#97c1e1" stroke="#97c1e1" stroke-width="1.51"/>
  <path d="M608 458l10 114 128-104z" fill="#8bbfdd" stroke="#8bbfdd" stroke-width="1.51"/>
  <path d="M985 60l-58-3-13 147z" fill="#9ec6e4" stroke="#9ec6e4" stroke-width="1.51"/>
  <path d="M1308 742l29-157-162 59z" fill="#4b97c9" stroke="#4b97c9" stroke-width="1.51"/>
  <path d="M1281 458l109-78-88-88z" fill="#6da7d1" stroke="#6da7d1" stroke-width="1.51"/>
  <path d="M853 920l207-51-66-129z" fill="#5197c9" stroke="#5197c9" stroke-width="1.51"/>
  <path d="M618 572l109 173 66-134z" fill="#78b2d7" stroke="#78b2d7" stroke-width="1.51"/>
  <path d="M1302 292l-23-112-90 6z" fill="#82b3d8" stroke="#82b3d8" stroke-width="1.51"/>
  <path d="M1337 585l55-119-111-8z" fill="#5a9ecd" stroke="#5a9ecd" stroke-width="1.51"/>
  <path d="M1451 158l-125-89-47 111z" fill="#87b0d8" stroke="#87b0d8" stroke-width="1.51"/>
  <path d="M1392 466l-2-86-109 78z" fill="#64a2cf" stroke="#64a2cf" stroke-width="1.51"/>
  <path d="M927 57L737 78l177 126z" fill="#a4cae5" stroke="#a4cae5" stroke-width="1.51"/>
  <path d="M715 199l-125 34 140 92z" fill="#a5cce3" stroke="#a5cce3" stroke-width="1.51"/>
  <path d="M994 740l66 129 69-140z" fill="#4e98ca" stroke="#4e98ca" stroke-width="1.51"/>
  <path d="M1129 729l179 13-133-98z" fill="#4b97c9" stroke="#4b97c9" stroke-width="1.51"/>
  <path d="M853 920l141-180-120-25z" fill="#5a9ecd" stroke="#5a9ecd" stroke-width="1.51"/>
  <path d="M590 95v138l125-34z" fill="#b0d1e7" stroke="#b0d1e7" stroke-width="1.51"/>
  <path d="M627 345l-97 19 78 94z" fill="#9dc8e1" stroke="#9dc8e1" stroke-width="1.51"/>
  <path d="M1206 911l102-169-179-13z" fill="#428fc6" stroke="#428fc6" stroke-width="1.51"/>
  <path d="M1337 585l61 41-6-160z" fill="#5198ca" stroke="#5198ca" stroke-width="1.51"/>
  <path d="M590 233l-60 131 97-19z" fill="#a6cde4" stroke="#a6cde4" stroke-width="1.51"/>
  <path d="M608 458l-76 110 86 4z" fill="#8cbedd" stroke="#8cbedd" stroke-width="1.51"/>
  <path d="M1308 742l90-116-61-41z" fill="#4993c7" stroke="#4993c7" stroke-width="1.51"/>
  <path d="M1536 245l-85-87-61 222z" fill="#76a5d1" stroke="#76a5d1" stroke-width="1.51"/>
  <path d="M445 457l87 111 76-110z" fill="#94c2e0" stroke="#94c2e0" stroke-width="1.51"/>
  <path d="M618 572l5 209 104-36z" fill="#78b1d5" stroke="#78b1d5" stroke-width="1.51"/>
  <path d="M927 57l-16-82L737 78z" fill="#a9cde7" stroke="#a9cde7" stroke-width="1.51"/>
  <path d="M985 60l-74-85 16 82z" fill="#a3c9e5" stroke="#a3c9e5" stroke-width="1.51"/>
  <path d="M1071-96L911-25l74 85z" fill="#a3c9e5" stroke="#a3c9e5" stroke-width="1.51"/>
  <path d="M532 568l91 213-5-209z" fill="#82b7d9" stroke="#82b7d9" stroke-width="1.51"/>
  <path d="M727 745l126 175 21-205z" fill="#63a2cf" stroke="#63a2cf" stroke-width="1.51"/>
  <path d="M756 919l97 1-126-175z" fill="#639ecd" stroke="#639ecd" stroke-width="1.51"/>
  <path d="M1279 180l47-111-137 117z" fill="#89b5da" stroke="#89b5da" stroke-width="1.51"/>
  <path d="M1126 94l-55-190-86 156z" fill="#9dc4e3" stroke="#9dc4e3" stroke-width="1.51"/>
  <path d="M1451 158l-172 22 23 112z" fill="#80aed6" stroke="#80aed6" stroke-width="1.51"/>
  <path d="M590 233l-109-73 49 204z" fill="#afd1e7" stroke="#afd1e7" stroke-width="1.51"/>
  <path d="M737 78L590 95l125 104z" fill="#b1d2e8" stroke="#b1d2e8" stroke-width="1.51"/>
  <path d="M621-54L590 95l147-17z" fill="#b9d6ea" stroke="#b9d6ea" stroke-width="1.51"/>
  <path d="M1060 869l146 42-77-182z" fill="#4690c6" stroke="#4690c6" stroke-width="1.51"/>
  <path d="M1308 742l159 25-69-141z" fill="#408dc4" stroke="#408dc4" stroke-width="1.51"/>
  <path d="M1170 986l36-75-146-42z" fill="#3f88c2" stroke="#3f88c2" stroke-width="1.51"/>
  <path d="M623 834l133 85-29-174z" fill="#6ba4cf" stroke="#6ba4cf" stroke-width="1.51"/>
  <path d="M623 781v53l104-89z" fill="#72a9d2" stroke="#72a9d2" stroke-width="1.51"/>
  <path d="M464 733l159 101v-53z" fill="#79acd4" stroke="#79acd4" stroke-width="1.51"/>
  <path d="M532 568l-68 165 159 48z" fill="#81b5d8" stroke="#81b5d8" stroke-width="1.51"/>
  <path d="M530 364l-85 93 163 1z" fill="#9cc7e1" stroke="#9cc7e1" stroke-width="1.51"/>
  <path d="M355 326l90 131 85-93z" fill="#a8cde5" stroke="#a8cde5" stroke-width="1.51"/>
  <path d="M1167-85l-96-11 55 190z" fill="#9dc3e2" stroke="#9dc3e2" stroke-width="1.51"/>
  <path d="M911-25L732-70l5 148z" fill="#b1d1e8" stroke="#b1d1e8" stroke-width="1.51"/>
  <path d="M1206 911l98-31 4-138z" fill="#3a89c1" stroke="#3a89c1" stroke-width="1.51"/>
  <path d="M1390 380l61-222-149 134z" fill="#77a9d2" stroke="#77a9d2" stroke-width="1.51"/>
  <path d="M1549 426l-159-46 2 86z" fill="#629dcc" stroke="#629dcc" stroke-width="1.51"/>
  <path d="M1319-87l-152 2 159 154z" fill="#95bcde" stroke="#95bcde" stroke-width="1.51"/>
  <path d="M1326 69L1167-85l-41 179z" fill="#94bdde" stroke="#94bdde" stroke-width="1.51"/>
  <path d="M858-174L732-70l179 45z" fill="#b3d3ea" stroke="#b3d3ea" stroke-width="1.51"/>
  <path d="M590 95l-109 65 109 73z" fill="#b7d4e9" stroke="#b7d4e9" stroke-width="1.51"/>
  <path d="M445 112l36 48 109-65z" fill="#bdd8ec" stroke="#bdd8ec" stroke-width="1.51"/>
  <path d="M1398 626l151-200-157 40z" fill="#5698ca" stroke="#5698ca" stroke-width="1.51"/>
  <path d="M1606 625l-57-199-151 200z" fill="#4b90c6" stroke="#4b90c6" stroke-width="1.51"/>
  <path d="M1549 426v-76l-159 30z" fill="#669dcc" stroke="#669dcc" stroke-width="1.51"/>
  <path d="M1206 911l120 96-22-127z" fill="#3481be" stroke="#3481be" stroke-width="1.51"/>
  <path d="M988 1025l182-39-110-117z" fill="#4388c2" stroke="#4388c2" stroke-width="1.51"/>
  <path d="M988 1025l72-156-207 51z" fill="#4b8fc6" stroke="#4b8fc6" stroke-width="1.51"/>
  <path d="M865 1052l123-27-135-105z" fill="#508cc3" stroke="#508cc3" stroke-width="1.51"/>
  <path d="M1403 873l64-106-159-25z" fill="#3986c0" stroke="#3986c0" stroke-width="1.51"/>
  <path d="M1403 873l-95-131-4 138z" fill="#3886c0" stroke="#3886c0" stroke-width="1.51"/>
  <path d="M1549 350l-13-105-146 135z" fill="#6ea1ce" stroke="#6ea1ce" stroke-width="1.51"/>
  <path d="M623 834l105 159 28-74z" fill="#679ccb" stroke="#679ccb" stroke-width="1.51"/>
  <path d="M388 645l76 88 68-165z" fill="#8abadc" stroke="#8abadc" stroke-width="1.51"/>
  <path d="M1551 85l-79 7-21 66z" fill="#84a9d5" stroke="#84a9d5" stroke-width="1.51"/>
  <path d="M1451 158l21-66-146-23z" fill="#87aed7" stroke="#87aed7" stroke-width="1.51"/>
  <path d="M1326 1007l77-134-99 7z" fill="#317fbc" stroke="#317fbc" stroke-width="1.51"/>
  <path d="M756 919l-28 74 125-73z" fill="#5e97c9" stroke="#5e97c9" stroke-width="1.51"/>
  <path d="M597 1037l131-44-105-159z" fill="#6a9bcb" stroke="#6a9bcb" stroke-width="1.51"/>
  <path d="M732-70L621-54 737 78z" fill="#b9d6ea" stroke="#b9d6ea" stroke-width="1.51"/>
  <path d="M445 457l-78 49 165 62z" fill="#98c4e2" stroke="#98c4e2" stroke-width="1.51"/>
  <path d="M355 326l12 180 78-49z" fill="#a6cbe4" stroke="#a6cbe4" stroke-width="1.51"/>
  <path d="M1071-96l-44-79L911-25z" fill="#a7cbe6" stroke="#a7cbe6" stroke-width="1.51"/>
  <path d="M732-70l-95-119-16 135z" fill="#c1dbed" stroke="#c1dbed" stroke-width="1.51"/>
  <path d="M1150-241l-123 66 44 79z" fill="#a8cae6" stroke="#a8cae6" stroke-width="1.51"/>
  <path d="M1150-241l-79 145 96 11z" fill="#a3c7e4" stroke="#a3c7e4" stroke-width="1.51"/>
  <path d="M1205 1180l121-173-156-21z" fill="#3279b7" stroke="#3279b7" stroke-width="1.51"/>
  <path d="M728 993l137 59-12-132z" fill="#5991c5" stroke="#5991c5" stroke-width="1.51"/>
  <path d="M1027-175l-169 1 53 149z" fill="#add0e8" stroke="#add0e8" stroke-width="1.51"/>
  <path d="M367 506l21 139 144-77z" fill="#93c0e0" stroke="#93c0e0" stroke-width="1.51"/>
  <path d="M481 160l-91 49 140 155z" fill="#b4d3e9" stroke="#b4d3e9" stroke-width="1.51"/>
  <path d="M459-72l-14 184 145-17z" fill="#c2daed" stroke="#c2daed" stroke-width="1.51"/>
  <path d="M1444-93l-125 6 7 156z" fill="#92b7db" stroke="#92b7db" stroke-width="1.51"/>
  <path d="M445 112l-55 97 91-49z" fill="#bed7ec" stroke="#bed7ec" stroke-width="1.51"/>
  <path d="M390 209l-35 117 175 38z" fill="#b2d2e8" stroke="#b2d2e8" stroke-width="1.51"/>
  <path d="M464 733l-5 148 164-47z" fill="#7babd4" stroke="#7babd4" stroke-width="1.51"/>
  <path d="M388 645l7 54 69 34z" fill="#8ab8db" stroke="#8ab8db" stroke-width="1.51"/>
  <path d="M383 873l12-174-138 151z" fill="#87b0d8" stroke="#87b0d8" stroke-width="1.51"/>
  <path d="M1587 724l-189-98 69 141z" fill="#3c88c2" stroke="#3c88c2" stroke-width="1.51"/>
  <path d="M1587 724l19-99-208 1z" fill="#4089c2" stroke="#4089c2" stroke-width="1.51"/>
  <path d="M1549 426l191-95-191 19z" fill="#6498c8" stroke="#6498c8" stroke-width="1.51"/>
  <path d="M1661 90l-110-5-15 160z" fill="#7ea3d2" stroke="#7ea3d2" stroke-width="1.51"/>
  <path d="M1593 879l-6-155-120 43z" fill="#307ebc" stroke="#307ebc" stroke-width="1.51"/>
  <path d="M1170 986l156 21-120-96z" fill="#3581bd" stroke="#3581bd" stroke-width="1.51"/>
  <path d="M1039 1176l131-190-182 39z" fill="#4080bb" stroke="#4080bb" stroke-width="1.51"/>
  <path d="M1593 879l-126-112-64 106z" fill="#307dbc" stroke="#307dbc" stroke-width="1.51"/>
  <path d="M1536 245l15-160-100 73z" fill="#7fa6d3" stroke="#7fa6d3" stroke-width="1.51"/>
  <path d="M1472 92l-28-185-118 162z" fill="#8cb1d9" stroke="#8cb1d9" stroke-width="1.51"/>
  <path d="M1661 90l-125 155 183-56z" fill="#7a9ece" stroke="#7a9ece" stroke-width="1.51"/>
  <path d="M865 1052l7 57 116-84z" fill="#4d87bf" stroke="#4d87bf" stroke-width="1.51"/>
  <path d="M786 1165l86-56-7-57z" fill="#5286bd" stroke="#5286bd" stroke-width="1.51"/>
  <path d="M383 873l76 8 5-148z" fill="#80acd5" stroke="#80acd5" stroke-width="1.51"/>
  <path d="M728 993l58 172 79-113z" fill="#588bc0" stroke="#588bc0" stroke-width="1.51"/>
  <path d="M1444-93l-134-66 9 72z" fill="#97b9dd" stroke="#97b9dd" stroke-width="1.51"/>
  <path d="M1319-87l-9-72-143 74z" fill="#9abfe0" stroke="#9abfe0" stroke-width="1.51"/>
  <path d="M226 210l35 142 94-26z" fill="#bad6ea" stroke="#bad6ea" stroke-width="1.51"/>
  <path d="M445 112l-72-22 17 119z" fill="#c3d9ee" stroke="#c3d9ee" stroke-width="1.51"/>
  <path d="M387-48L373 90l72 22z" fill="#c8ddf0" stroke="#c8ddf0" stroke-width="1.51"/>
  <path d="M1027-175l-264-56 95 57z" fill="#b6d5eb" stroke="#b6d5eb" stroke-width="1.51"/>
  <path d="M1310-159l-160-82 17 156z" fill="#a0c4e2" stroke="#a0c4e2" stroke-width="1.51"/>
  <path d="M621-54L459-72 590 95z" fill="#c2dbed" stroke="#c2dbed" stroke-width="1.51"/>
  <path d="M858-174l-95-57-31 161z" fill="#bbd8eb" stroke="#bbd8eb" stroke-width="1.51"/>
  <path d="M1150-241l-387 10 264 56z" fill="#b1d1e9" stroke="#b1d1e9" stroke-width="1.51"/>
  <path d="M1310-159l157-9-317-73z" fill="#9ec0e0" stroke="#9ec0e0" stroke-width="1.51"/>
  <path d="M1552-70l-108-23 28 185z" fill="#8cafd7" stroke="#8cafd7" stroke-width="1.51"/>
  <path d="M477 993l120 44 26-203z" fill="#709dcd" stroke="#709dcd" stroke-width="1.51"/>
  <path d="M763-231l-126 42 95 119z" fill="#c1dced" stroke="#c1dced" stroke-width="1.51"/>
  <path d="M355 326l-94 26 106 154z" fill="#adcfe7" stroke="#adcfe7" stroke-width="1.51"/>
  <path d="M367 506L254 626l134 19z" fill="#98c1e1" stroke="#98c1e1" stroke-width="1.51"/>
  <path d="M395 699l-12 174 81-140z" fill="#84b2d8" stroke="#84b2d8" stroke-width="1.51"/>
  <path d="M226 210l129 116 35-117z" fill="#bdd7eb" stroke="#bdd7eb" stroke-width="1.51"/>
  <path d="M1326 1007l109-6-32-128z" fill="#2c79b9" stroke="#2c79b9" stroke-width="1.51"/>
  <path d="M1337 1144l98-143-109 6z" fill="#2a73b4" stroke="#2a73b4" stroke-width="1.51"/>
  <path d="M534-209L459-72l162 18z" fill="#c9e0f0" stroke="#c9e0f0" stroke-width="1.51"/>
  <path d="M459 881l18 112 146-159z" fill="#76a4d0" stroke="#76a4d0" stroke-width="1.51"/>
  <path d="M254 626l141 73-7-54z" fill="#92bdde" stroke="#92bdde" stroke-width="1.51"/>
  <path d="M872 1109l167 67-51-151z" fill="#4681bb" stroke="#4681bb" stroke-width="1.51"/>
  <path d="M890 1279l149-103-167-67z" fill="#467bb4" stroke="#467bb4" stroke-width="1.51"/>
  <path d="M261 352l-25 88 131 66z" fill="#aacee6" stroke="#aacee6" stroke-width="1.51"/>
  <path d="M383 873l94 120-18-112z" fill="#7ba4d1" stroke="#7ba4d1" stroke-width="1.51"/>
  <path d="M1606 625l119-150-176-49z" fill="#4f8dc4" stroke="#4f8dc4" stroke-width="1.51"/>
  <path d="M1735 605l-10-130-119 150z" fill="#4686bf" stroke="#4686bf" stroke-width="1.51"/>
  <path d="M1735 605l-129 20 126 137z" fill="#3b7fbb" stroke="#3b7fbb" stroke-width="1.51"/>
  <path d="M236 440l18 186 113-120z" fill="#a0c7e4" stroke="#a0c7e4" stroke-width="1.51"/>
  <path d="M597 1037l51 76 80-120z" fill="#6693c5" stroke="#6693c5" stroke-width="1.51"/>
  <path d="M472 1128l176-15-51-76z" fill="#6b91c3" stroke="#6b91c3" stroke-width="1.51"/>
  <path d="M648 1113l138 52-58-172z" fill="#5f8cc1" stroke="#5f8cc1" stroke-width="1.51"/>
  <path d="M1435 1001l158-122-190-6z" fill="#2977b8" stroke="#2977b8" stroke-width="1.51"/>
  <path d="M459-72l-72 24 58 160z" fill="#cadef0" stroke="#cadef0" stroke-width="1.51"/>
  <path d="M373 90L226 210l164-1z" fill="#c4daee" stroke="#c4daee" stroke-width="1.51"/>
  <path d="M385-209l2 161 72-24z" fill="#d2e3f2" stroke="#d2e3f2" stroke-width="1.51"/>
  <path d="M1551 85l1-155-80 162z" fill="#87aad5" stroke="#87aad5" stroke-width="1.51"/>
  <path d="M1740 331l-204-86 13 105z" fill="#6c9bca" stroke="#6c9bca" stroke-width="1.51"/>
  <path d="M1444-93l23-75-157 9z" fill="#97b8dc" stroke="#97b8dc" stroke-width="1.51"/>
  <path d="M1681-57l-129-13-1 155z" fill="#88a8d4" stroke="#88a8d4" stroke-width="1.51"/>
  <path d="M1725 475l15-144-191 95z" fill="#5d92c5" stroke="#5d92c5" stroke-width="1.51"/>
  <path d="M1732 762l-126-137-19 99z" fill="#3780bc" stroke="#3780bc" stroke-width="1.51"/>
  <path d="M1725 475l80 19-65-163z" fill="#588bc0" stroke="#588bc0" stroke-width="1.51"/>
  <path d="M1039 1176l166 4-35-194z" fill="#3879b6" stroke="#3879b6" stroke-width="1.51"/>
  <path d="M1609 1019l80-172-96 32z" fill="#2270b3" stroke="#2270b3" stroke-width="1.51"/>
  <path d="M1552-70l-85-98-23 75z" fill="#92b2d9" stroke="#92b2d9" stroke-width="1.51"/>
  <path d="M1740 331l-21-142-183 56z" fill="#7199ca" stroke="#7199ca" stroke-width="1.51"/>
  <path d="M637-189l-103-20 87 155z" fill="#c8dfef" stroke="#c8dfef" stroke-width="1.51"/>
  <path d="M763-231l-229 22 103 20z" fill="#c9e0ef" stroke="#c9e0ef" stroke-width="1.51"/>
  <path d="M261 352l-130 14 105 74z" fill="#b3d3e8" stroke="#b3d3e8" stroke-width="1.51"/>
  <path d="M205 24l21 186L373 90z" fill="#cbdef1" stroke="#cbdef1" stroke-width="1.51"/>
  <path d="M1205 1180l132-36-11-137z" fill="#2c72b2" stroke="#2c72b2" stroke-width="1.51"/>
  <path d="M1609 1019l-16-140-158 122z" fill="#2270b4" stroke="#2270b4" stroke-width="1.51"/>
  <path d="M1593 879l96-32-102-123z" fill="#2b78b8" stroke="#2b78b8" stroke-width="1.51"/>
  <path d="M1689 847l43-85-145-38z" fill="#2e79b7" stroke="#2e79b7" stroke-width="1.51"/>
  <path d="M1740 331l98-37-119-105z" fill="#6c94c5" stroke="#6c94c5" stroke-width="1.51"/>
  <path d="M1735 605l70-111-80-19z" fill="#4a85be" stroke="#4a85be" stroke-width="1.51"/>
  <path d="M1835 584l-30-90-70 111z" fill="#4481bb" stroke="#4481bb" stroke-width="1.51"/>
  <path d="M477 993l-5 135 125-91z" fill="#7096c7" stroke="#7096c7" stroke-width="1.51"/>
  <path d="M383 873l-25 179 119-59z" fill="#7aa0cf" stroke="#7aa0cf" stroke-width="1.51"/>
  <path d="M180 716l77 134 138-151z" fill="#8db7db" stroke="#8db7db" stroke-width="1.51"/>
  <path d="M180 716l215-17-141-73z" fill="#93bcde" stroke="#93bcde" stroke-width="1.51"/>
  <path d="M736 1314l154-35-104-114z" fill="#517aae" stroke="#517aae" stroke-width="1.51"/>
  <path d="M786 1165l104 114-18-170z" fill="#4f7fb6" stroke="#4f7fb6" stroke-width="1.51"/>
  <path d="M1039 1176l134 87 32-83z" fill="#3671ad" stroke="#3671ad" stroke-width="1.51"/>
  <path d="M1205 1180l96 124 36-160z" fill="#2a6aa8" stroke="#2a6aa8" stroke-width="1.51"/>
  <path d="M736 1314l50-149-138-52z" fill="#5b83b7" stroke="#5b83b7" stroke-width="1.51"/>
  <path d="M67 566l113 150 74-90z" fill="#9bc2e1" stroke="#9bc2e1" stroke-width="1.51"/>
  <path d="M67 566l187 60-18-186z" fill="#a1c8e5" stroke="#a1c8e5" stroke-width="1.51"/>
  <path d="M1014 1309l159-46-134-87z" fill="#3970a8" stroke="#3970a8" stroke-width="1.51"/>
  <path d="M226 210l-95 156 130-14z" fill="#bbd7eb" stroke="#bbd7eb" stroke-width="1.51"/>
  <path d="M358 1052l114 76 5-135z" fill="#7698c9" stroke="#7698c9" stroke-width="1.51"/>
  <path d="M1337 1144l119 6-21-149z" fill="#256db0" stroke="#256db0" stroke-width="1.51"/>
  <path d="M1441 1255l15-105-119-6z" fill="#2266a8" stroke="#2266a8" stroke-width="1.51"/>
  <path d="M1456 1150l153-131-174-18z" fill="#216bb0" stroke="#216bb0" stroke-width="1.51"/>
  <path d="M1841 703l-106-98-3 157z" fill="#3679b7" stroke="#3679b7" stroke-width="1.51"/>
  <path d="M1552-70l47-120-132 22z" fill="#93b0d8" stroke="#93b0d8" stroke-width="1.51"/>
  <path d="M1661 90l20-147-130 142z" fill="#84a4d1" stroke="#84a4d1" stroke-width="1.51"/>
  <path d="M1833-23l-152-34-20 147z" fill="#84a0ce" stroke="#84a0ce" stroke-width="1.51"/>
  <path d="M1835 90h-174l58 99z" fill="#7c9acb" stroke="#7c9acb" stroke-width="1.51"/>
  <path d="M1841 703l-6-119-100 21z" fill="#3c7cb8" stroke="#3c7cb8" stroke-width="1.51"/>
  <path d="M1805 494l33-200-98 37z" fill="#5f8dc0" stroke="#5f8dc0" stroke-width="1.51"/>
  <path d="M1841 703l-109 59 67 71z" fill="#2c73b3" stroke="#2c73b3" stroke-width="1.51"/>
  <path d="M890 1279l124 30 25-133z" fill="#4073aa" stroke="#4073aa" stroke-width="1.51"/>
  <path d="M1930 362l-92-68-33 200z" fill="#5c89be" stroke="#5c89be" stroke-width="1.51"/>
  <path d="M257 850l101 202 25-179z" fill="#82a6d4" stroke="#82a6d4" stroke-width="1.51"/>
  <path d="M389 1174l-31-122-143 51z" fill="#7b96c8" stroke="#7b96c8" stroke-width="1.51"/>
  <path d="M387-48L205 24l168 66z" fill="#cfe0f2" stroke="#cfe0f2" stroke-width="1.51"/>
  <path d="M226 210L52 238l79 128z" fill="#c2dbed" stroke="#c2dbed" stroke-width="1.51"/>
  <path d="M241-110L205 24l182-72z" fill="#d4e4f4" stroke="#d4e4f4" stroke-width="1.51"/>
  <path d="M763-231l-378 22h149z" fill="#cee3f1" stroke="#cee3f1" stroke-width="1.51"/>
  <path d="M534-209H385l74 137z" fill="#d1e4f2" stroke="#d1e4f2" stroke-width="1.51"/>
  <path d="M1681-57l-82-133-47 120z" fill="#8eaad5" stroke="#8eaad5" stroke-width="1.51"/>
  <path d="M1467-168l132-22-449-51z" fill="#9bbadd" stroke="#9bbadd" stroke-width="1.51"/>
  <path d="M1838 294l-8-105h-111z" fill="#7193c5" stroke="#7193c5" stroke-width="1.51"/>
  <path d="M-69 360l154 76 46-70z" fill="#b9d7ea" stroke="#b9d7ea" stroke-width="1.51"/>
  <path d="M131 366l-46 70 151 4z" fill="#b2d2e8" stroke="#b2d2e8" stroke-width="1.51"/>
  <path d="M1977 486l-47-124-125 132z" fill="#5382b8" stroke="#5382b8" stroke-width="1.51"/>
  <path d="M1799 833l-67-71-43 85z" fill="#2972b3" stroke="#2972b3" stroke-width="1.51"/>
  <path d="M624 1315l112-1-88-201z" fill="#5d81b1" stroke="#5d81b1" stroke-width="1.51"/>
  <path d="M890 1279l-154 35 278-5z" fill="#4873a6" stroke="#4873a6" stroke-width="1.51"/>
  <path d="M624 1315l24-202-151 183z" fill="#6384b3" stroke="#6384b3" stroke-width="1.51"/>
  <path d="M1824 976l-25-143-110 14z" fill="#216aaf" stroke="#216aaf" stroke-width="1.51"/>
  <path d="M1609 1019l60 23 20-195z" fill="#1d6aaf" stroke="#1d6aaf" stroke-width="1.51"/>
  <path d="M1600 1190l69-148-60-23z" fill="#1862aa" stroke="#1862aa" stroke-width="1.51"/>
  <path d="M82 75L52 238l174-28z" fill="#ccdff0" stroke="#ccdff0" stroke-width="1.51"/>
  <path d="M385-209l-144 99 146 62z" fill="#d6e6f4" stroke="#d6e6f4" stroke-width="1.51"/>
  <path d="M180 716l-79 118 156 16z" fill="#8fb5db" stroke="#8fb5db" stroke-width="1.51"/>
  <path d="M85 436L67 566l169-126z" fill="#abcee7" stroke="#abcee7" stroke-width="1.51"/>
  <path d="M1173 1263l128 41-96-124z" fill="#2e69a4" stroke="#2e69a4" stroke-width="1.51"/>
  <path d="M1456 1150l144 40 9-171z" fill="#1963aa" stroke="#1963aa" stroke-width="1.51"/>
  <path d="M1014 1309l287-5-128-41z" fill="#3268a1" stroke="#3268a1" stroke-width="1.51"/>
  <path d="M736 1314l565-10-287 5z" fill="#3c6da2" stroke="#3c6da2" stroke-width="1.51"/>
  <path d="M1924 102l-89-12-5 99z" fill="#7893c5" stroke="#7893c5" stroke-width="1.51"/>
  <path d="M1830 189l5-99-116 99z" fill="#7796c8" stroke="#7796c8" stroke-width="1.51"/>
  <path d="M1681-57l61-184-143 51z" fill="#90a9d4" stroke="#90a9d4" stroke-width="1.51"/>
  <path d="M1301 1304l140-49-104-111z" fill="#2564a3" stroke="#2564a3" stroke-width="1.51"/>
  <path d="M206 1036l152 16-101-202z" fill="#81a3d1" stroke="#81a3d1" stroke-width="1.51"/>
  <path d="M358 1052l31 122 83-46z" fill="#7593c6" stroke="#7593c6" stroke-width="1.51"/>
  <path d="M497 1296l151-183-176 15z" fill="#698bbc" stroke="#698bbc" stroke-width="1.51"/>
  <path d="M85 436l-129 26L67 566z" fill="#aed0e8" stroke="#aed0e8" stroke-width="1.51"/>
  <path d="M82 75l144 135-21-186z" fill="#d0e1f2" stroke="#d0e1f2" stroke-width="1.51"/>
  <path d="M67 566l26 216 87-66z" fill="#99c0e0" stroke="#99c0e0" stroke-width="1.51"/>
  <path d="M1977 486l-172 8 30 90z" fill="#487fb9" stroke="#487fb9" stroke-width="1.51"/>
  <path d="M1838 294l87-103-95-2z" fill="#6f8fc2" stroke="#6f8fc2" stroke-width="1.51"/>
  <path d="M93 782l8 52 79-118z" fill="#92b8dc" stroke="#92b8dc" stroke-width="1.51"/>
  <path d="M81-78l1 153 123-51z" fill="#d7e6f5" stroke="#d7e6f5" stroke-width="1.51"/>
  <path d="M1924 102l-91-125 2 113z" fill="#7d95c7" stroke="#7d95c7" stroke-width="1.51"/>
  <path d="M1835 90l-2-113-172 113z" fill="#7f9bca" stroke="#7f9bca" stroke-width="1.51"/>
  <path d="M1441 1255l159-65-144-40z" fill="#1c60a4" stroke="#1c60a4" stroke-width="1.51"/>
  <path d="M1669 1042l155-66-135-129z" fill="#1b67ae" stroke="#1b67ae" stroke-width="1.51"/>
  <path d="M101 834l105 202 51-186z" fill="#88acd6" stroke="#88acd6" stroke-width="1.51"/>
  <path d="M1930 362l-5-171-87 103z" fill="#678bbe" stroke="#678bbe" stroke-width="1.51"/>
  <path d="M389 1174l108 122-25-168z" fill="#6e8bbc" stroke="#6e8bbc" stroke-width="1.51"/>
  <path d="M397 1274l100 22-108-122z" fill="#6e87b7" stroke="#6e87b7" stroke-width="1.51"/>
  <path d="M1930 362l198 13-203-184z" fill="#6284b4" stroke="#6284b4" stroke-width="1.51"/>
  <path d="M1984 565l-7-79-142 98z" fill="#437ab3" stroke="#437ab3" stroke-width="1.51"/>
  <path d="M1984 565l-149 19 6 119z" fill="#3c78b4" stroke="#3c78b4" stroke-width="1.51"/>
  <path d="M1799 833l151-68-109-62z" fill="#2a6fb0" stroke="#2a6fb0" stroke-width="1.51"/>
  <path d="M1876 1102l-52-126-155 66z" fill="#145da5" stroke="#145da5" stroke-width="1.51"/>
  <path d="M1925 191l-1-89-94 87z" fill="#7490c2" stroke="#7490c2" stroke-width="1.51"/>
  <path d="M2088 76l-164 26 1 89z" fill="#758cbc" stroke="#758cbc" stroke-width="1.51"/>
  <path d="M206 1036l9 67 143-51z" fill="#7f9ccc" stroke="#7f9ccc" stroke-width="1.51"/>
  <path d="M106 1150l109-47-9-67z" fill="#819bcb" stroke="#819bcb" stroke-width="1.51"/>
  <path d="M1950 765l34-200-143 138z" fill="#3471ae" stroke="#3471ae" stroke-width="1.51"/>
  <path d="M1600 1190l91-26-22-122z" fill="#145da6" stroke="#145da6" stroke-width="1.51"/>
  <path d="M1740 1296l-49-132-91 26z" fill="#12559b" stroke="#12559b" stroke-width="1.51"/>
  <path d="M227 1278l170-4-8-100z" fill="#748ab9" stroke="#748ab9" stroke-width="1.51"/>
  <path d="M1861-180L1681-57l152 34z" fill="#889fcd" stroke="#889fcd" stroke-width="1.51"/>
  <path d="M1861-180l-119-61-61 184z" fill="#8ea3d0" stroke="#8ea3d0" stroke-width="1.51"/>
  <path d="M1599-190l143-51h-592z" fill="#99b6db" stroke="#99b6db" stroke-width="1.51"/>
  <path d="M67 566l-114 35L93 782z" fill="#9fc5e2" stroke="#9fc5e2" stroke-width="1.51"/>
  <path d="M93 782L-9 897l110-63z" fill="#91b5db" stroke="#91b5db" stroke-width="1.51"/>
  <path d="M-69 360l25 102 129-26z" fill="#b8d6eb" stroke="#b8d6eb" stroke-width="1.51"/>
  <path d="M-69 360l200 6-79-128z" fill="#c0dbec" stroke="#c0dbec" stroke-width="1.51"/>
  <path d="M1441 1255l98 41 61-106z" fill="#1a5a9d" stroke="#1a5a9d" stroke-width="1.51"/>
  <path d="M1301 1304l238-8-98-41z" fill="#205c9b" stroke="#205c9b" stroke-width="1.51"/>
  <path d="M1986 864l-36-99-151 68z" fill="#2568aa" stroke="#2568aa" stroke-width="1.51"/>
  <path d="M50-218l128 13 207-4z" fill="#e1edf8" stroke="#e1edf8" stroke-width="1.51"/>
  <path d="M385-209l-207 4 63 95z" fill="#ddeaf6" stroke="#ddeaf6" stroke-width="1.51"/>
  <path d="M241-110L81-78 205 24z" fill="#d9e7f6" stroke="#d9e7f6" stroke-width="1.51"/>
  <path d="M178-205L81-78l160-32z" fill="#deeaf7" stroke="#deeaf7" stroke-width="1.51"/>
  <path d="M-57 216l-12 144L52 238z" fill="#c8dfef" stroke="#c8dfef" stroke-width="1.51"/>
  <path d="M-44 462l-3 139 114-35z" fill="#aacee8" stroke="#aacee8" stroke-width="1.51"/>
  <path d="M101 834l-31 178 136 24z" fill="#88a8d4" stroke="#88a8d4" stroke-width="1.51"/>
  <path d="M-57 216l109 22-87-124z" fill="#d0e2f2" stroke="#d0e2f2" stroke-width="1.51"/>
  <path d="M-44 462l-98 134 95 5z" fill="#accee8" stroke="#accee8" stroke-width="1.51"/>
  <path d="M-35 114l87 124L82 75z" fill="#d3e3f4" stroke="#d3e3f4" stroke-width="1.51"/>
  <path d="M-3-53l-32 167L82 75z" fill="#d9e7f6" stroke="#d9e7f6" stroke-width="1.51"/>
  <path d="M1924 102l2-160-93 35z" fill="#7f95c5" stroke="#7f95c5" stroke-width="1.51"/>
  <path d="M2088 76L1926-58l-2 160z" fill="#7b8fbd" stroke="#7b8fbd" stroke-width="1.51"/>
  <path d="M215 1103l12 175 162-104z" fill="#7990c1" stroke="#7990c1" stroke-width="1.51"/>
  <path d="M-9 897l79 115 31-178z" fill="#8eaed7" stroke="#8eaed7" stroke-width="1.51"/>
  <path d="M1926-58l-65-122-28 157z" fill="#869ac9" stroke="#869ac9" stroke-width="1.51"/>
  <path d="M-84 726l75 171L93 782z" fill="#96badd" stroke="#96badd" stroke-width="1.51"/>
  <path d="M1977 486l91 4-138-128z" fill="#517cb0" stroke="#517cb0" stroke-width="1.51"/>
  <path d="M1984 565l84-75-91-4z" fill="#4677ad" stroke="#4677ad" stroke-width="1.51"/>
  <path d="M2144 587l-76-97-84 75z" fill="#4171a8" stroke="#4171a8" stroke-width="1.51"/>
  <path d="M2125 784l19-197-160-22z" fill="#366aa2" stroke="#366aa2" stroke-width="1.51"/>
  <path d="M1824 976l162-112-187-31z" fill="#1d65aa" stroke="#1d65aa" stroke-width="1.51"/>
  <path d="M1940 1009l46-145-162 112z" fill="#165da4" stroke="#165da4" stroke-width="1.51"/>
  <path d="M81-78L-3-53 82 75z" fill="#dce9f6" stroke="#dce9f6" stroke-width="1.51"/>
  <path d="M-187 196l18 96 112-76z" fill="#d1e4f2" stroke="#d1e4f2" stroke-width="1.51"/>
  <path d="M50-218L-3-53l84-25z" fill="#e2edf8" stroke="#e2edf8" stroke-width="1.51"/>
  <path d="M-47 601l-37 125 177 56z" fill="#9dc2e1" stroke="#9dc2e1" stroke-width="1.51"/>
  <path d="M-142 596l58 130 37-125z" fill="#a6c9e5" stroke="#a6c9e5" stroke-width="1.51"/>
  <path d="M1691 1164l185-62-207-60z" fill="#125ba3" stroke="#125ba3" stroke-width="1.51"/>
  <path d="M1864 1277l12-175-185 62z" fill="#0c519a" stroke="#0c519a" stroke-width="1.51"/>
  <path d="M1876 1102l64-93-116-33z" fill="#1259a2" stroke="#1259a2" stroke-width="1.51"/>
  <path d="M-54 1040l160 110-36-138z" fill="#88a1ce" stroke="#88a1ce" stroke-width="1.51"/>
  <path d="M70 1012l36 138 100-114z" fill="#849fcd" stroke="#849fcd" stroke-width="1.51"/>
  <path d="M106 1150l121 128-12-175z" fill="#7e94c4" stroke="#7e94c4" stroke-width="1.51"/>
  <path d="M397 1274l-170 4 270 18z" fill="#7085b3" stroke="#7085b3" stroke-width="1.51"/>
  <path d="M497 1296l-425-6 552 25z" fill="#6e83b0" stroke="#6e83b0" stroke-width="1.51"/>
  <path d="M-84 726l-82 54L-9 897z" fill="#9abbde" stroke="#9abbde" stroke-width="1.51"/>
  <path d="M-201 449l59 147 98-134z" fill="#b4d4ea" stroke="#b4d4ea" stroke-width="1.51"/>
  <path d="M-201 449l157 13-25-102z" fill="#bbd8eb" stroke="#bbd8eb" stroke-width="1.51"/>
  <path d="M-169 292l100 68 12-144z" fill="#cae0ef" stroke="#cae0ef" stroke-width="1.51"/>
  <path d="M1150-241L50-218l713-13z" fill="#c9e1ef" stroke="#c9e1ef" stroke-width="1.51"/>
  <path d="M763-231L50-218l335 9z" fill="#d9e8f5" stroke="#d9e8f5" stroke-width="1.51"/>
  <path d="M178-205L50-218 81-78z" fill="#e3edf9" stroke="#e3edf9" stroke-width="1.51"/>
  <path d="M1301 1304l439-8h-201z" fill="#195696" stroke="#195696" stroke-width="1.51"/>
  <path d="M1539 1296h201l-140-106z" fill="#145497" stroke="#145497" stroke-width="1.51"/>
  <path d="M2068 490l60-115-198-13z" fill="#547cad" stroke="#547cad" stroke-width="1.51"/>
  <path d="M2144 587l-16-212-60 115z" fill="#4873a5" stroke="#4873a5" stroke-width="1.51"/>
  <path d="M-187 196l152-82-181-69z" fill="#dbe8f6" stroke="#dbe8f6" stroke-width="1.51"/>
  <path d="M-187 196l130 20 22-102z" fill="#d5e5f3" stroke="#d5e5f3" stroke-width="1.51"/>
  <path d="M1926-58l73-106-138-16z" fill="#8798c6" stroke="#8798c6" stroke-width="1.51"/>
  <path d="M2130 168l-42-92-163 115z" fill="#7187b5" stroke="#7187b5" stroke-width="1.51"/>
  <path d="M2125 784l-175-19 36 99z" fill="#2563a2" stroke="#2563a2" stroke-width="1.51"/>
  <path d="M2125 784l-141-219-34 200z" fill="#2f6aa5" stroke="#2f6aa5" stroke-width="1.51"/>
  <path d="M-169 292l-32 157 132-89z" fill="#c3deed" stroke="#c3deed" stroke-width="1.51"/>
  <path d="M2144 587l-14-419-2 207z" fill="#5678a7" stroke="#5678a7" stroke-width="1.51"/>
  <path d="M2128 375l2-207-205 23z" fill="#6783b1" stroke="#6783b1" stroke-width="1.51"/>
  <path d="M2138-29l-212-29 162 134z" fill="#7b8cb8" stroke="#7b8cb8" stroke-width="1.51"/>
  <path d="M2138-29l-139-135-73 106z" fill="#8191bd" stroke="#8191bd" stroke-width="1.51"/>
  <path d="M1861-180l138 16-257-77z" fill="#8d9ecc" stroke="#8d9ecc" stroke-width="1.51"/>
  <path d="M-169 292l-18-96-14 253z" fill="#cbe2f0" stroke="#cbe2f0" stroke-width="1.51"/>
  <path d="M-170-19l135 133L-3-53z" fill="#dfebf7" stroke="#dfebf7" stroke-width="1.51"/>
  <path d="M-201 449l35 331 24-184z" fill="#abcde7" stroke="#abcde7" stroke-width="1.51"/>
  <path d="M-142 596l-24 184 82-54z" fill="#a2c5e3" stroke="#a2c5e3" stroke-width="1.51"/>
  <path d="M-9 897l-45 143 124-28z" fill="#8daad4" stroke="#8daad4" stroke-width="1.51"/>
  <path d="M106 1150l-34 140 155-12z" fill="#7d8fbc" stroke="#7d8fbc" stroke-width="1.51"/>
  <path d="M-149 920l95 120 45-143z" fill="#91aed7" stroke="#91aed7" stroke-width="1.51"/>
  <path d="M2095 913l30-129-139 80z" fill="#205c9b" stroke="#205c9b" stroke-width="1.51"/>
  <path d="M2095 913l-109-49 85 139z" fill="#19589a" stroke="#19589a" stroke-width="1.51"/>
  <path d="M1986 864l-46 145 131-6z" fill="#16589c" stroke="#16589c" stroke-width="1.51"/>
  <path d="M2071 1003l-131 6 49 162z" fill="#0f5096" stroke="#0f5096" stroke-width="1.51"/>
  <path d="M1740 1296l124-19-173-113z" fill="#0e4e93" stroke="#0e4e93" stroke-width="1.51"/>
  <path d="M50-218l-127 39L-3-53z" fill="#e6f0fa" stroke="#e6f0fa" stroke-width="1.51"/>
  <path d="M-166 780l17 140 140-23z" fill="#98b6dc" stroke="#98b6dc" stroke-width="1.51"/>
  <path d="M1989 1171l-49-162-64 93z" fill="#0d5199" stroke="#0d5199" stroke-width="1.51"/>
  <path d="M-77-179l-93 160L-3-53z" fill="#e5effa" stroke="#e5effa" stroke-width="1.51"/>
  <path d="M-69 1170l175-20-160-110z" fill="#889ecc" stroke="#889ecc" stroke-width="1.51"/>
  <path d="M-69 1170l141 120 34-140z" fill="#8295c1" stroke="#8295c1" stroke-width="1.51"/>
  <path d="M227 1278l-155 12 425 6z" fill="#7587b4" stroke="#7587b4" stroke-width="1.51"/>
  <path d="M1864 1277l125-106-113-69z" fill="#084b93" stroke="#084b93" stroke-width="1.51"/>
  <path d="M2130 168l8-197-50 105z" fill="#7485b1" stroke="#7485b1" stroke-width="1.51"/>
  <path d="M2144 587l-6-616-8 197z" fill="#657eab" stroke="#657eab" stroke-width="1.51"/>
  <path d="M-187 196l-29-151 15 404z" fill="#d4e5f3" stroke="#d4e5f3" stroke-width="1.51"/>
  <path d="M-170-19l-46 64 181 69z" fill="#e0ebf8" stroke="#e0ebf8" stroke-width="1.51"/>
  <path d="M-155-166l-61 211 46-64z" fill="#e7f0fa" stroke="#e7f0fa" stroke-width="1.51"/>
  <path d="M-163 1099l94 71 15-130z" fill="#8ca1ce" stroke="#8ca1ce" stroke-width="1.51"/>
  <path d="M-77-179l-78 13-15 147z" fill="#e9f2fb" stroke="#e9f2fb" stroke-width="1.51"/>
  <path d="M50-218l-205 52 78-13z" fill="#eaf3fb" stroke="#eaf3fb" stroke-width="1.51"/>
  <path d="M1864 1277l120-18 5-88z" fill="#09458a" stroke="#09458a" stroke-width="1.51"/>
  <path d="M1989 1171l109-10-27-158z" fill="#0c498f" stroke="#0c498f" stroke-width="1.51"/>
  <path d="M2075 1276l-91-17-120 18z" fill="#094083" stroke="#094083" stroke-width="1.51"/>
  <path d="M2138-29l9-126-148-9z" fill="#808db7" stroke="#808db7" stroke-width="1.51"/>
  <path d="M1999-164l148 9-405-86z" fill="#8998c3" stroke="#8998c3" stroke-width="1.51"/>
  <path d="M2144 587l3-742-9 126z" fill="#6f82ad" stroke="#6f82ad" stroke-width="1.51"/>
  <path d="M-219 991l56 108 109-59z" fill="#91a7d3" stroke="#91a7d3" stroke-width="1.51"/>
  <path d="M-69 1170v136l141-16z" fill="#8292bc" stroke="#8292bc" stroke-width="1.51"/>
  <path d="M-219 991l165 49-95-120z" fill="#93acd6" stroke="#93acd6" stroke-width="1.51"/>
  <path d="M-219 991l70-71-17-140z" fill="#99b5db" stroke="#99b5db" stroke-width="1.51"/>
  <path d="M-216 45l-3 946 18-542z" fill="#b8d6eb" stroke="#b8d6eb" stroke-width="1.51"/>
  <path d="M-201 449l-18 542 53-211z" fill="#a2c4e2" stroke="#a2c4e2" stroke-width="1.51"/>
  <path d="M2071 1003l27 158-3-248z" fill="#124e91" stroke="#124e91" stroke-width="1.51"/>
  <path d="M2095 913l3 248 27-377z" fill="#155294" stroke="#155294" stroke-width="1.51"/>
  <path d="M2125 784l-27 377 46-574z" fill="#205a97" stroke="#205a97" stroke-width="1.51"/>
  <path d="M2075 1276l23-115-109 10z" fill="#094185" stroke="#094185" stroke-width="1.51"/>
  <path d="M-162 1324l93-154-94-71z" fill="#8a99c5" stroke="#8a99c5" stroke-width="1.51"/>
  <path d="M-162 1324l93-18v-136z" fill="#8592bb" stroke="#8592bb" stroke-width="1.51"/>
  <path d="M72 1290l-234 34 786-9z" fill="#7787b3" stroke="#7787b3" stroke-width="1.51"/>
  <path d="M1984 1259l91 17-86-105z" fill="#094184" stroke="#094184" stroke-width="1.51"/>
  <path d="M1740 1296l335-20-211 1z" fill="#094489" stroke="#094489" stroke-width="1.51"/>
  <path d="M-219 991l57 333-1-225z" fill="#8fa0cd" stroke="#8fa0cd" stroke-width="1.51"/>
  <path d="M-69 1306l-93 18 234-34z" fill="#818db6" stroke="#818db6" stroke-width="1.51"/>
  <path d="M624 1315l-786 9 898-10z" fill="#6d82ae" stroke="#6d82ae" stroke-width="1.51"/>
</svg>
